<svg xmlns="http://www.w3.org/2000/svg" xmlns:xlink="http://www.w3.org/1999/xlink" width="1366" zoomAndPan="magnify" viewBox="0 0 1024.5 576" height="768" preserveAspectRatio="xMidYMid meet" version="1.0"><defs><clipPath id="f68581f6b4"><path d="M 333 38 L 725 38 L 725 545.140625 L 333 545.140625 Z M 333 38 " clip-rule="nonzero"/></clipPath></defs><g clip-path="url(#f68581f6b4)"><path fill="#ffffff" d="M 720.785156 213.511719 C 681.980469 217.210938 644.371094 233.1875 605.066406 224.964844 C 604.5625 224.859375 604.0625 224.878906 603.570312 225.019531 C 547.859375 210.058594 517.847656 143.269531 499.898438 92.15625 C 495.585938 79.839844 491.558594 67.425781 487.734375 54.945312 C 487.785156 50.699219 487.890625 46.457031 488.109375 42.210938 C 488.113281 41.828125 488.058594 41.453125 487.953125 41.089844 C 487.847656 40.722656 487.695312 40.378906 487.488281 40.058594 C 487.285156 39.734375 487.039062 39.449219 486.75 39.199219 C 486.464844 38.949219 486.144531 38.746094 485.800781 38.585938 C 485.453125 38.425781 485.09375 38.320312 484.714844 38.265625 C 484.335938 38.210938 483.960938 38.214844 483.582031 38.269531 C 483.207031 38.324219 482.84375 38.429688 482.5 38.589844 C 482.152344 38.746094 481.835938 38.953125 481.546875 39.203125 C 480.976562 38.992188 480.394531 38.945312 479.796875 39.0625 C 479.199219 39.175781 478.675781 39.4375 478.222656 39.847656 C 477.769531 40.253906 477.457031 40.746094 477.28125 41.328125 C 477.101562 41.914062 477.089844 42.5 477.238281 43.085938 C 478.039062 45.964844 478.84375 48.835938 479.644531 51.695312 C 478.558594 97.984375 486.027344 145.300781 474.105469 190.589844 C 462.535156 234.523438 432.121094 268.570312 396.4375 295.265625 C 395.878906 295.667969 395.316406 296.023438 394.808594 296.421875 C 376.648438 303.09375 359.691406 312.050781 343.945312 323.292969 C 343.734375 323.433594 343.542969 323.597656 343.367188 323.78125 C 343.195312 323.964844 343.042969 324.164062 342.910156 324.382812 C 342.78125 324.601562 342.671875 324.828125 342.589844 325.066406 C 342.511719 325.308594 342.453125 325.554688 342.425781 325.804688 C 342.398438 326.058594 342.394531 326.308594 342.421875 326.5625 C 342.445312 326.8125 342.5 327.058594 342.578125 327.300781 C 342.65625 327.542969 342.761719 327.773438 342.886719 327.992188 C 343.015625 328.210938 343.167969 328.410156 343.339844 328.597656 C 340.808594 329.945312 338.300781 331.347656 335.742188 332.648438 C 329.714844 335.722656 335.019531 344.722656 341.042969 341.710938 C 363.585938 330.570312 384.855469 317.378906 404.855469 302.144531 C 411.25 300.507812 417.742188 299.511719 424.332031 299.15625 C 451.5 297.855469 473.488281 312.027344 489.4375 333.097656 C 499.265625 346.882812 507.722656 361.460938 514.804688 376.835938 C 521.890625 392.210938 527.476562 408.113281 531.570312 424.539062 C 531.570312 426.90625 531.519531 429.28125 531.570312 431.644531 C 532.085938 455.347656 534.167969 478.917969 537.820312 502.347656 C 538.492188 506.824219 545.398438 506.527344 546.777344 502.949219 C 548.238281 515.648438 549.039062 528.386719 549.179688 541.164062 C 549.199219 541.691406 549.316406 542.195312 549.53125 542.675781 C 549.746094 543.15625 550.042969 543.578125 550.421875 543.945312 C 550.800781 544.308594 551.234375 544.589844 551.722656 544.789062 C 552.210938 544.984375 552.71875 545.082031 553.246094 545.082031 C 553.773438 545.082031 554.277344 544.984375 554.765625 544.789062 C 555.253906 544.589844 555.691406 544.308594 556.070312 543.945312 C 556.449219 543.578125 556.746094 543.15625 556.960938 542.675781 C 557.175781 542.195312 557.292969 541.691406 557.3125 541.164062 C 557.847656 521.613281 556.796875 502.148438 554.148438 482.769531 C 551.503906 463.386719 547.300781 444.351562 541.542969 425.660156 C 541.414062 374.191406 550.738281 322.882812 583.289062 281.800781 C 590.484375 272.894531 598.421875 264.710938 607.109375 257.25 C 615.796875 249.792969 625.085938 243.183594 634.976562 237.417969 C 635.691406 236.988281 636.253906 236.410156 636.671875 235.691406 C 637.089844 234.96875 637.3125 234.191406 637.335938 233.359375 C 665.226562 231.839844 692.476562 223.171875 720.785156 220.535156 C 725.234375 220.101562 725.265625 213.089844 720.785156 213.511719 Z M 550.96875 317.261719 C 545.679688 330.109375 541.484375 343.308594 538.390625 356.855469 C 535.296875 370.402344 533.34375 384.113281 532.53125 397.984375 C 531.972656 396.453125 531.410156 394.902344 530.851562 393.378906 C 514.585938 349.308594 486.765625 293.675781 433.296875 290.625 C 428.308594 290.363281 423.332031 290.515625 418.367188 291.089844 C 428.59375 282.324219 438.082031 272.820312 446.832031 262.585938 C 454.058594 254.21875 460.425781 245.242188 465.945312 235.664062 C 471.460938 226.082031 476.023438 216.066406 479.632812 205.617188 C 483.421875 193.386719 486.171875 180.929688 487.890625 168.242188 C 489.605469 155.550781 490.261719 142.808594 489.859375 130.011719 C 489.742188 113.660156 488.742188 97.324219 488.183594 80.976562 C 494.464844 102.203125 502.175781 122.898438 511.316406 143.058594 C 525.902344 174.480469 546.128906 206.378906 576.585938 224.539062 C 582.636719 228.140625 589.007812 231.046875 595.695312 233.257812 C 602.382812 235.46875 609.230469 236.933594 616.238281 237.652344 C 609.09375 242.625 602.328125 248.066406 595.9375 253.972656 C 589.546875 259.878906 583.59375 266.195312 578.074219 272.925781 C 572.558594 279.65625 567.53125 286.734375 562.992188 294.15625 C 558.453125 301.582031 554.445312 309.285156 550.96875 317.261719 Z M 550.96875 317.261719 " fill-opacity="1" fill-rule="nonzero"/></g></svg>