<svg xmlns="http://www.w3.org/2000/svg" xmlns:xlink="http://www.w3.org/1999/xlink" width="1366" zoomAndPan="magnify" viewBox="0 0 1024.5 576" height="768" preserveAspectRatio="xMidYMid meet" version="1.0"><defs><filter x="0%" y="0%" width="100%" height="100%" id="0f31f86b59"><feColorMatrix values="0 0 0 0 1 0 0 0 0 1 0 0 0 0 1 0 0 0 1 0" color-interpolation-filters="sRGB"/></filter><mask id="832b68ae3b"><g filter="url(#0f31f86b59)"><rect x="-102.45" width="1229.4" fill="#000000" y="-57.6" height="691.2" fill-opacity="0.1"/></g></mask><clipPath id="31f0c19fee"><path d="M 304 352 L 513 352 L 513 532.941406 L 304 532.941406 Z M 304 352 " clip-rule="nonzero"/></clipPath><clipPath id="549aae57eb"><path d="M 608 176 L 817.246094 176 L 817.246094 357.734375 L 608 357.734375 Z M 608 176 " clip-rule="nonzero"/></clipPath><clipPath id="93da172027"><path d="M 0.199219 176 L 209 176 L 209 358 L 0.199219 358 Z M 0.199219 176 " clip-rule="nonzero"/></clipPath><clipPath id="0bbe07e6db"><rect x="0" width="818" y="0" height="535"/></clipPath></defs><g mask="url(#832b68ae3b)"><g transform="matrix(1, 0, 0, 1, 94, 21)"><g clip-path="url(#0bbe07e6db)"><path fill="#ffffff" d="M 461.496094 356.046875 L 457.390625 353.679688 L 508.113281 265.824219 L 512.21875 268.191406 L 461.496094 356.046875 " fill-opacity="1" fill-rule="nonzero"/><path fill="#ffffff" d="M 355.949219 356.046875 L 305.230469 268.191406 L 309.335938 265.824219 L 360.054688 353.679688 L 355.949219 356.046875 " fill-opacity="1" fill-rule="nonzero"/><path fill="#ffffff" d="M 611.625 445.085938 L 510.183594 445.085938 L 510.183594 440.339844 L 611.625 440.339844 L 611.625 445.085938 " fill-opacity="1" fill-rule="nonzero"/><path fill="#ffffff" d="M 307.277344 445.085938 L 205.847656 445.085938 L 205.847656 440.339844 L 307.277344 440.339844 L 307.277344 445.085938 " fill-opacity="1" fill-rule="nonzero"/><g clip-path="url(#31f0c19fee)"><path fill="#ffffff" d="M 359.378906 528.195312 L 458.070312 528.195312 L 507.433594 442.71875 L 458.070312 357.230469 L 359.378906 357.230469 L 310.011719 442.71875 Z M 460.820312 532.941406 L 356.640625 532.941406 L 304.539062 442.71875 L 356.640625 352.496094 L 460.820312 352.496094 L 512.894531 442.71875 L 460.820312 532.941406 " fill-opacity="1" fill-rule="nonzero"/></g><path fill="#ffffff" d="M 613.660156 443.902344 L 609.554688 441.535156 L 660.273438 353.679688 L 664.378906 356.046875 L 613.660156 443.902344 " fill-opacity="1" fill-rule="nonzero"/><path fill="#ffffff" d="M 660.273438 180.347656 L 609.554688 92.492188 L 613.660156 90.125 L 664.378906 177.980469 L 660.273438 180.347656 " fill-opacity="1" fill-rule="nonzero"/><path fill="#ffffff" d="M 611.613281 269.386719 L 510.160156 269.386719 L 510.160156 264.640625 L 611.613281 264.640625 L 611.613281 269.386719 " fill-opacity="1" fill-rule="nonzero"/><g clip-path="url(#549aae57eb)"><path fill="#ffffff" d="M 663.703125 352.496094 L 762.394531 352.496094 L 811.761719 267.007812 L 762.394531 181.53125 L 663.703125 181.53125 L 614.351562 267.007812 Z M 765.132812 357.230469 L 660.964844 357.230469 L 608.875 267.007812 L 660.964844 176.796875 L 765.132812 176.796875 L 817.222656 267.007812 L 765.132812 357.230469 " fill-opacity="1" fill-rule="nonzero"/></g><path fill="#ffffff" d="M 309.335938 268.191406 L 305.230469 265.824219 L 355.949219 177.980469 L 360.054688 180.347656 L 309.335938 268.191406 " fill-opacity="1" fill-rule="nonzero"/><path fill="#ffffff" d="M 508.113281 268.191406 L 457.390625 180.347656 L 461.496094 177.980469 L 512.21875 265.824219 L 508.113281 268.191406 " fill-opacity="1" fill-rule="nonzero"/><path fill="#ffffff" d="M 611.625 93.675781 L 510.183594 93.675781 L 510.183594 88.941406 L 611.625 88.941406 L 611.625 93.675781 " fill-opacity="1" fill-rule="nonzero"/><path fill="#ffffff" d="M 307.277344 93.675781 L 205.847656 93.675781 L 205.847656 88.941406 L 307.277344 88.941406 L 307.277344 93.675781 " fill-opacity="1" fill-rule="nonzero"/><path fill="#ffffff" d="M 359.378906 176.796875 L 458.070312 176.796875 L 507.433594 91.308594 L 458.070312 5.832031 L 359.378906 5.832031 L 310.011719 91.308594 Z M 460.820312 181.53125 L 356.640625 181.53125 L 304.539062 91.308594 L 356.640625 1.085938 L 460.820312 1.085938 L 512.894531 91.308594 L 460.820312 181.53125 " fill-opacity="1" fill-rule="nonzero"/><path fill="#ffffff" d="M 203.761719 443.902344 L 153.042969 356.046875 L 157.148438 353.679688 L 207.867188 441.535156 L 203.761719 443.902344 " fill-opacity="1" fill-rule="nonzero"/><path fill="#ffffff" d="M 157.148438 180.347656 L 153.042969 177.980469 L 203.761719 90.125 L 207.867188 92.492188 L 157.148438 180.347656 " fill-opacity="1" fill-rule="nonzero"/><path fill="#ffffff" d="M 307.277344 269.386719 L 205.847656 269.386719 L 205.847656 264.640625 L 307.277344 264.640625 L 307.277344 269.386719 " fill-opacity="1" fill-rule="nonzero"/><g clip-path="url(#93da172027)"><path fill="#ffffff" d="M 55.027344 352.496094 L 153.730469 352.496094 L 203.085938 267.007812 L 153.730469 181.53125 L 55.027344 181.53125 L 5.675781 267.007812 Z M 156.46875 357.230469 L 52.289062 357.230469 L 0.199219 267.007812 L 52.289062 176.796875 L 156.46875 176.796875 L 208.558594 267.007812 L 156.46875 357.230469 " fill-opacity="1" fill-rule="nonzero"/></g></g></g></g></svg>