<svg xmlns="http://www.w3.org/2000/svg" xmlns:xlink="http://www.w3.org/1999/xlink" width="1366" zoomAndPan="magnify" viewBox="0 0 1024.5 576" height="768" preserveAspectRatio="xMidYMid meet" version="1.0"><defs><clipPath id="fac1f52b94"><path d="M 283 24 L 741.933594 24 L 741.933594 552 L 283 552 Z M 283 24 " clip-rule="nonzero"/></clipPath></defs><g clip-path="url(#fac1f52b94)"><path fill="#ffffff" d="M 741.238281 334.351562 C 741.195312 334.003906 741.128906 333.652344 741.046875 333.296875 C 740.96875 332.945312 740.882812 332.59375 740.773438 332.246094 C 740.582031 331.542969 740.335938 330.863281 740.039062 330.199219 C 739.890625 329.863281 739.738281 329.53125 739.574219 329.207031 C 739.410156 328.878906 739.21875 328.574219 739.027344 328.261719 C 738.65625 327.644531 738.242188 327.054688 737.78125 326.5 C 737.335938 325.953125 736.855469 325.4375 736.347656 324.949219 C 735.851562 324.496094 735.335938 324.0625 734.800781 323.660156 C 734.4375 323.386719 734.496094 323.4375 734.402344 323.367188 L 734.207031 323.230469 C 733.152344 322.484375 732.105469 321.734375 731.054688 320.972656 C 726.867188 317.921875 722.746094 314.742188 718.683594 311.441406 C 710.566406 304.867188 702.730469 297.859375 695.199219 290.542969 C 687.664062 283.226562 680.433594 275.589844 673.519531 267.671875 C 659.660156 251.789062 647.191406 234.882812 636.113281 216.949219 L 634.050781 213.589844 L 632.039062 210.195312 C 631.703125 209.628906 631.359375 209.070312 631.035156 208.5 L 630.054688 206.789062 L 628.097656 203.367188 L 626.179688 199.910156 L 625.230469 198.183594 L 624.304688 196.445312 L 622.453125 192.960938 L 620.660156 189.449219 C 615.875 180.078125 611.53125 170.488281 607.546875 160.75 L 606.796875 158.925781 C 606.546875 158.316406 606.3125 157.699219 606.074219 157.089844 L 604.636719 153.414062 L 604.277344 152.496094 L 603.933594 151.570312 L 603.25 149.71875 L 601.878906 146.019531 L 600.574219 142.292969 C 600.140625 141.050781 599.691406 139.8125 599.289062 138.558594 C 598.464844 136.054688 597.609375 133.570312 596.847656 131.046875 C 593.695312 121.003906 590.949219 110.835938 588.609375 100.539062 C 586.429688 90.96875 584.605469 81.320312 583.132812 71.59375 C 583.042969 69.402344 582.886719 67.503906 582.667969 65.917969 C 582.503906 64.527344 582.207031 63.167969 581.773438 61.839844 C 580.765625 53.890625 579.984375 45.917969 579.425781 37.914062 C 579.308594 36.101562 578.875 34.363281 578.125 32.710938 C 577.339844 30.984375 576.261719 29.464844 574.886719 28.160156 C 573.511719 26.851562 571.945312 25.847656 570.183594 25.148438 C 568.496094 24.46875 566.746094 24.113281 564.929688 24.074219 C 563.113281 24.035156 561.347656 24.316406 559.636719 24.921875 C 557.882812 25.558594 556.308594 26.496094 554.910156 27.730469 C 553.515625 28.96875 552.394531 30.417969 551.550781 32.078125 L 551.433594 32.304688 L 551.394531 32.382812 L 551.316406 32.542969 L 551.164062 32.859375 L 550.851562 33.492188 L 548.351562 38.558594 L 547.085938 41.085938 L 545.808594 43.613281 C 544.101562 46.980469 542.367188 50.335938 540.605469 53.683594 C 538.839844 57.03125 537.0625 60.371094 535.269531 63.703125 C 531.664062 70.363281 527.964844 76.980469 524.171875 83.550781 C 520.378906 90.125 516.46875 96.632812 512.441406 103.078125 C 504.359375 115.949219 495.707031 128.492188 486.257812 140.433594 C 476.824219 152.40625 466.589844 163.648438 455.550781 174.15625 C 444.527344 184.625 432.675781 194.21875 420.027344 202.523438 C 407.40625 210.804688 394.105469 217.78125 380.121094 223.457031 C 373.210938 226.28125 366.171875 228.707031 359.085938 230.835938 C 352.003906 232.964844 344.84375 234.753906 337.667969 236.230469 C 330.492188 237.707031 323.246094 238.832031 315.996094 239.628906 C 315.089844 239.726562 314.183594 239.851562 313.273438 239.933594 L 310.535156 240.167969 L 307.8125 240.40625 C 307.359375 240.453125 306.902344 240.480469 306.441406 240.503906 L 305.074219 240.578125 L 302.335938 240.746094 L 300.964844 240.828125 C 300.511719 240.855469 300.050781 240.855469 299.59375 240.871094 L 294.015625 241.027344 C 293.414062 241.046875 292.820312 241.113281 292.230469 241.230469 C 291.640625 241.34375 291.0625 241.507812 290.5 241.71875 C 289.9375 241.929688 289.394531 242.183594 288.875 242.484375 C 288.355469 242.785156 287.859375 243.125 287.394531 243.503906 C 286.929688 243.882812 286.5 244.300781 286.101562 244.75 C 285.703125 245.203125 285.347656 245.683594 285.027344 246.191406 C 284.710938 246.703125 284.433594 247.234375 284.203125 247.789062 C 283.972656 248.34375 283.785156 248.914062 283.648438 249.5 C 283.511719 250.082031 283.421875 250.675781 283.378906 251.273438 C 283.339844 251.875 283.347656 252.472656 283.40625 253.070312 C 283.460938 253.671875 283.566406 254.261719 283.722656 254.839844 C 283.875 255.421875 284.074219 255.988281 284.320312 256.535156 C 284.570312 257.082031 284.859375 257.609375 285.191406 258.109375 C 285.523438 258.609375 285.894531 259.078125 286.300781 259.519531 C 286.710938 259.960938 287.15625 260.363281 287.628906 260.730469 C 288.105469 261.097656 288.609375 261.425781 289.136719 261.710938 L 289.28125 261.785156 L 290.023438 262.1875 L 290.847656 262.636719 L 292.507812 263.570312 C 293.621094 264.203125 294.742188 264.855469 295.855469 265.515625 C 298.089844 266.84375 300.320312 268.207031 302.539062 269.605469 C 306.972656 272.402344 311.355469 275.304688 315.6875 278.3125 C 324.347656 284.316406 332.773438 290.691406 340.957031 297.359375 C 357.339844 310.703125 372.570312 325.25 386.652344 341.003906 L 389.269531 343.957031 L 391.839844 346.945312 L 393.125 348.441406 L 394.382812 349.953125 L 396.902344 352.984375 C 397.726562 353.996094 398.546875 355.03125 399.371094 356.050781 L 400.597656 357.589844 C 401.011719 358.097656 401.421875 358.613281 401.816406 359.132812 L 404.226562 362.25 C 404.625 362.769531 405.035156 363.285156 405.425781 363.808594 L 406.597656 365.386719 C 412.878906 373.789062 418.765625 382.453125 424.253906 391.378906 C 435.148438 409.238281 444.324219 428.085938 451.371094 447.691406 C 454.890625 457.492188 457.878906 467.457031 460.328125 477.578125 C 462.769531 487.699219 464.652344 497.917969 465.976562 508.242188 C 466.355469 510.820312 466.59375 513.410156 466.867188 515.996094 L 467.074219 517.933594 C 467.140625 518.582031 467.21875 519.226562 467.261719 519.875 L 467.554688 523.769531 L 467.855469 527.660156 L 468.039062 531.558594 L 468.230469 535.460938 L 468.253906 535.949219 L 468.253906 536.222656 C 468.269531 536.542969 468.292969 536.867188 468.324219 537.191406 C 468.59375 540.09375 469.578125 542.726562 471.273438 545.097656 C 472.097656 546.234375 473.054688 547.253906 474.140625 548.144531 C 475.226562 549.039062 476.410156 549.777344 477.6875 550.367188 C 478.96875 550.953125 480.300781 551.371094 481.683594 551.613281 C 483.070312 551.855469 484.464844 551.921875 485.867188 551.804688 C 488.070312 551.625 490.144531 551.019531 492.097656 549.984375 C 494.046875 548.949219 495.714844 547.570312 497.097656 545.851562 C 497.324219 545.574219 497.519531 545.300781 497.714844 545.027344 C 497.914062 544.753906 498.109375 544.464844 498.265625 544.191406 C 498.421875 543.914062 498.597656 543.640625 498.753906 543.347656 L 498.917969 543.035156 L 499.386719 542.164062 C 500.632812 539.84375 501.898438 537.527344 503.1875 535.21875 C 505.761719 530.605469 508.410156 526.027344 511.128906 521.484375 C 516.585938 512.40625 522.304688 503.492188 528.285156 494.742188 C 531.277344 490.371094 534.332031 486.050781 537.453125 481.78125 C 540.574219 477.507812 543.765625 473.292969 547.023438 469.136719 C 560.039062 452.492188 574.117188 436.734375 589.367188 422.351562 C 604.617188 407.96875 621.039062 394.972656 638.65625 384.105469 C 640.871094 382.78125 643.066406 381.417969 645.320312 380.15625 L 647 379.191406 L 647.839844 378.710938 L 648.6875 378.25 L 652.085938 376.398438 C 653.214844 375.78125 654.371094 375.214844 655.511719 374.617188 L 657.230469 373.738281 C 657.800781 373.4375 658.382812 373.167969 658.960938 372.886719 L 662.429688 371.203125 L 665.933594 369.605469 L 667.6875 368.8125 L 669.460938 368.0625 C 670.640625 367.5625 671.816406 367.042969 673 366.5625 C 675.386719 365.632812 677.757812 364.644531 680.171875 363.804688 L 681.972656 363.144531 L 682.875 362.8125 C 683.175781 362.707031 683.480469 362.609375 683.78125 362.507812 L 687.414062 361.285156 L 688.324219 360.984375 L 689.238281 360.710938 L 691.070312 360.160156 C 692.292969 359.792969 693.507812 359.394531 694.742188 359.066406 L 698.429688 358.050781 C 699.042969 357.871094 699.667969 357.738281 700.285156 357.582031 L 702.140625 357.125 L 704 356.671875 C 704.617188 356.511719 705.242188 356.398438 705.863281 356.261719 L 709.601562 355.457031 C 710.847656 355.207031 712.101562 354.996094 713.355469 354.761719 L 715.230469 354.417969 C 715.859375 354.300781 716.488281 354.21875 717.117188 354.121094 L 720.894531 353.542969 C 722.152344 353.375 723.417969 353.234375 724.679688 353.074219 L 726.574219 352.84375 L 726.808594 352.816406 C 726.855469 352.816406 727.394531 352.742188 727.660156 352.695312 C 728.328125 352.589844 728.988281 352.449219 729.640625 352.269531 C 730.3125 352.066406 730.984375 351.828125 731.636719 351.558594 C 732.296875 351.269531 732.933594 350.9375 733.554688 350.566406 C 734.765625 349.835938 735.863281 348.957031 736.847656 347.941406 C 737.832031 346.921875 738.667969 345.792969 739.355469 344.554688 C 740.042969 343.316406 740.5625 342.011719 740.910156 340.636719 C 741.253906 339.265625 741.417969 337.871094 741.402344 336.453125 C 741.386719 335.75 741.332031 335.050781 741.238281 334.351562 Z M 684.765625 314.199219 C 684.183594 318.148438 683.574219 322.554688 682.976562 326.863281 C 682.792969 328.191406 682.597656 329.601562 682.390625 331.085938 C 680.601562 323.632812 678.683594 315.234375 677.027344 308 C 676.902344 307.453125 676.78125 306.90625 676.65625 306.359375 C 677.183594 306.878906 677.703125 307.402344 678.226562 307.917969 C 680.382812 310.039062 682.5625 312.136719 684.765625 314.199219 Z M 644.371094 319.40625 C 643.34375 326.878906 642.296875 334.503906 641.285156 341.574219 C 640.597656 328.105469 640.023438 311.855469 639.464844 296.082031 C 639.058594 284.597656 638.640625 272.882812 638.179688 262.117188 C 642.148438 267.40625 646.238281 272.59375 650.457031 277.683594 C 649 286.308594 647.128906 299.363281 644.371094 319.40625 Z M 607.5625 214.789062 L 609.613281 218.445312 L 610.640625 220.269531 C 610.984375 220.878906 611.339844 221.476562 611.691406 222.082031 L 613.804688 225.699219 L 615.964844 229.285156 C 616.496094 230.164062 617.035156 231.039062 617.574219 231.914062 C 616.785156 236.0625 615.90625 241.140625 614.902344 247.375 C 612.023438 265.304688 608.769531 289.085938 605.621094 312.089844 C 602.859375 332.269531 600.007812 353.085938 597.417969 369.886719 C 597.476562 368.125 597.535156 366.28125 597.601562 364.347656 C 598.402344 341.613281 600.066406 312.214844 601.691406 283.789062 C 603.132812 258.507812 604.617188 232.519531 605.492188 210.964844 L 605.566406 211.105469 Z M 585.355469 167.425781 L 586.132812 169.371094 C 586.46875 170.214844 586.8125 171.046875 587.152344 171.886719 C 585.421875 179.554688 583.367188 190.621094 580.789062 206.710938 C 576.296875 234.753906 571.242188 271.960938 566.351562 307.949219 C 561.644531 342.585938 556.765625 378.40625 552.433594 405.90625 C 551.0625 414.523438 549.824219 421.9375 548.667969 428.28125 L 548.570312 428.386719 C 549.117188 418.332031 550.085938 405.769531 551.527344 390.265625 C 554.890625 354.03125 560.351562 306.886719 565.628906 261.296875 C 570.183594 221.941406 574.867188 181.5 578.230469 147.742188 C 578.453125 148.402344 578.679688 149.066406 578.90625 149.730469 L 580.253906 153.691406 L 581.667969 157.628906 L 582.734375 160.582031 L 583.105469 161.558594 L 584.59375 165.472656 C 584.859375 166.128906 585.097656 166.785156 585.355469 167.429688 Z M 570.839844 42.113281 L 570.882812 42.03125 C 570.914062 41.972656 570.863281 42.074219 570.851562 42.097656 C 570.8125 42.175781 570.769531 42.257812 570.722656 42.339844 L 570.753906 42.277344 Z M 552.578125 73.867188 C 553.640625 72.226562 554.660156 70.546875 555.703125 68.882812 C 556.742188 67.21875 557.746094 65.53125 558.75 63.847656 C 559.03125 63.375 559.3125 62.902344 559.59375 62.425781 C 560.226562 68.027344 560.96875 73.621094 561.816406 79.203125 C 558.847656 91.222656 555.15625 110.152344 550.3125 140.40625 C 543.144531 185.15625 535.074219 244.566406 527.273438 302.015625 C 519.648438 358.167969 511.761719 416.238281 504.734375 460.480469 C 502.722656 473.140625 500.867188 484.15625 499.136719 493.683594 C 497.484375 496.265625 495.851562 498.863281 494.238281 501.472656 C 494.976562 491.742188 496.03125 480.242188 497.425781 466.734375 C 501.613281 426.207031 508.289062 373.40625 514.746094 322.335938 C 521.59375 268.101562 528.695312 211.992188 532.824219 170.371094 C 535.0625 147.867188 536.285156 131.238281 536.5625 119.53125 C 536.71875 112.894531 536.5625 107.921875 536.109375 104.324219 C 535.9375 102.664062 535.578125 101.050781 535.035156 99.472656 C 541.171875 91.148438 547.042969 82.621094 552.582031 73.871094 Z M 525.386719 125.839844 C 525.386719 125.878906 525.386719 125.917969 525.386719 125.957031 C 524.816406 138.28125 523.445312 154.828125 521.199219 176.574219 C 517.015625 217.113281 510.335938 269.90625 503.878906 320.972656 C 497.03125 375.207031 489.929688 431.320312 485.800781 472.9375 C 485.648438 474.496094 485.496094 476.015625 485.351562 477.519531 C 482.820312 466.355469 479.675781 455.367188 475.921875 444.550781 C 478.429688 436.585938 481.597656 421.753906 486.203125 393.015625 C 491.40625 360.46875 497.289062 317.269531 502.96875 275.488281 C 508.460938 235.066406 514.144531 193.269531 519.210938 161.265625 C 521.519531 146.605469 523.554688 134.953125 525.386719 125.839844 Z M 495.09375 147.953125 C 501.601562 140.832031 507.953125 133.558594 514.152344 126.140625 C 512.621094 133.980469 510.882812 143.902344 508.863281 156.480469 C 503.660156 189.027344 497.777344 232.234375 492.097656 274.015625 C 486.605469 314.433594 480.921875 356.230469 475.855469 388.238281 C 473.621094 402.359375 471.648438 413.691406 469.867188 422.648438 C 470.042969 416.074219 470.382812 408.265625 470.890625 399.011719 C 472.332031 372.90625 474.941406 339.101562 477.464844 306.414062 C 480.183594 271.238281 482.992188 234.867188 484.359375 207.867188 C 485.097656 193.234375 485.367188 182.40625 485.179688 174.773438 C 485.074219 170.390625 484.816406 167.070312 484.394531 164.640625 C 484.1875 163.238281 483.789062 161.890625 483.207031 160.601562 C 487.226562 156.441406 491.1875 152.226562 495.09375 147.953125 Z M 462.226562 181.253906 C 463.695312 179.878906 465.15625 178.5 466.609375 177.113281 C 465.527344 182.492188 464.296875 189.441406 462.84375 198.507812 C 459.464844 219.570312 455.65625 247.511719 451.972656 274.535156 C 448.464844 300.28125 444.851562 326.890625 441.597656 347.425781 C 440.914062 351.761719 440.285156 355.601562 439.699219 358.996094 C 439.664062 357.675781 439.628906 356.289062 439.601562 354.832031 C 439.234375 338.183594 439.21875 316.757812 439.207031 296.035156 C 439.1875 273.425781 439.171875 250.050781 438.703125 232.679688 C 438.449219 223.234375 438.082031 216.246094 437.582031 211.28125 C 437.386719 209.003906 437.039062 206.75 436.539062 204.519531 C 436.492188 204.328125 436.429688 204.070312 436.34375 203.78125 C 439.167969 201.492188 441.960938 199.175781 444.726562 196.828125 C 450.683594 191.757812 456.515625 186.566406 462.226562 181.253906 Z M 420.691406 215.855469 C 420.164062 218.71875 419.59375 222.042969 418.972656 225.890625 C 416.867188 239.011719 414.488281 256.398438 412.183594 273.21875 C 410.03125 288.929688 407.800781 305.171875 405.824219 317.8125 C 405.6875 318.699219 405.550781 319.554688 405.417969 320.375 C 403.90625 310.476562 402.25 298.257812 400.644531 286.410156 C 398.746094 272.414062 396.785156 257.945312 395.046875 247.171875 C 394.148438 241.609375 393.371094 237.398438 392.671875 234.335938 C 402.332031 228.664062 411.671875 222.503906 420.691406 215.855469 Z M 376.542969 242.972656 C 375.371094 250.324219 374.058594 259.832031 372.78125 269.042969 C 371.789062 276.214844 370.617188 284.683594 369.527344 291.820312 L 368.359375 290.800781 C 366.246094 285.59375 363.976562 279.863281 361.996094 274.882812 C 358.871094 267 355.640625 258.855469 353.046875 252.695312 C 361.074219 249.925781 368.90625 246.683594 376.542969 242.96875 Z M 328.308594 259.929688 C 328.113281 259.796875 327.914062 259.65625 327.722656 259.535156 C 329.988281 259.09375 332.246094 258.609375 334.496094 258.082031 C 334.339844 259.175781 334.179688 260.308594 334.023438 261.414062 C 333.917969 262.140625 333.8125 262.894531 333.703125 263.664062 C 331.914062 262.410156 330.113281 261.164062 328.308594 259.929688 Z M 344.871094 262.941406 C 344.917969 262.609375 344.96875 262.269531 345.015625 261.929688 C 346.898438 266.53125 348.933594 271.644531 350.789062 276.324219 C 348.449219 274.496094 346.09375 272.699219 343.722656 270.925781 C 344.09375 268.417969 344.484375 265.65625 344.867188 262.953125 Z M 379.226562 300.539062 C 379.394531 299.5625 379.566406 298.511719 379.75 297.386719 C 380.953125 289.933594 382.316406 280.066406 383.636719 270.527344 C 384.214844 266.339844 384.855469 261.710938 385.507812 257.164062 C 386.875 266.417969 388.359375 277.296875 389.789062 287.878906 C 391.011719 296.898438 392.253906 306.113281 393.460938 314.410156 C 388.824219 309.675781 384.078125 305.058594 379.222656 300.550781 Z M 424.074219 349.570312 C 423.648438 349.023438 423.210938 348.476562 422.78125 347.929688 L 420.191406 344.628906 C 419.761719 344.078125 419.320312 343.53125 418.878906 342.984375 L 417.554688 341.355469 C 416.667969 340.277344 415.792969 339.183594 414.898438 338.113281 L 413.636719 336.625 C 414.414062 332.925781 415.28125 328.132812 416.25 322.027344 C 418.359375 308.90625 420.742188 291.515625 423.042969 274.699219 C 424.683594 262.804688 426.328125 250.59375 427.917969 239.890625 C 428.230469 256.128906 428.242188 276.398438 428.257812 296.042969 C 428.257812 317.089844 428.285156 338.800781 428.667969 355.710938 C 427.570312 354.222656 426.460938 352.734375 425.339844 351.257812 Z M 446.304688 381.941406 C 447.796875 376.089844 449.59375 366.875 451.96875 352.035156 C 455.347656 330.972656 459.15625 303.03125 462.839844 276.003906 C 466.347656 250.257812 469.960938 223.652344 473.210938 203.117188 C 473.40625 201.882812 473.597656 200.695312 473.78125 199.554688 C 473.605469 203.648438 473.386719 208.113281 473.117188 212.976562 C 471.679688 239.082031 469.070312 272.882812 466.546875 305.5625 C 463.828125 340.738281 461.015625 377.109375 459.652344 404.109375 C 459.625 404.714844 459.59375 405.3125 459.5625 405.90625 C 455.464844 397.742188 451.046875 389.753906 446.300781 381.949219 Z M 477.007812 531.585938 L 477.023438 531.558594 C 476.996094 531.617188 476.976562 531.652344 477.007812 531.59375 Z M 527.347656 453.746094 C 523.933594 458.128906 520.589844 462.570312 517.316406 467.0625 C 516.222656 468.578125 515.125 470.097656 514.03125 471.625 C 514.375 469.515625 514.726562 467.34375 515.085938 465.117188 C 522.25 420.367188 530.320312 360.953125 538.121094 303.503906 C 545.75 247.351562 553.636719 189.28125 560.660156 145.042969 C 562.996094 130.34375 565.121094 117.863281 567.082031 107.359375 C 567.964844 111.3125 568.902344 115.257812 569.898438 119.191406 C 569.578125 122.945312 569.226562 126.902344 568.839844 131.066406 C 565.472656 167.308594 560.015625 214.449219 554.734375 260.042969 C 549.113281 308.628906 543.292969 358.867188 539.980469 396.148438 C 538.195312 416.257812 537.257812 431.136719 537.113281 441.617188 C 533.792969 445.621094 530.539062 449.664062 527.34375 453.757812 Z M 578.386719 398.417969 L 575.285156 401.257812 L 573.738281 402.679688 L 572.210938 404.121094 C 568.828125 407.3125 565.507812 410.5625 562.253906 413.863281 C 562.425781 412.8125 562.597656 411.746094 562.773438 410.648438 C 567.265625 382.609375 572.320312 345.398438 577.214844 309.414062 C 581.917969 274.777344 586.800781 238.957031 591.128906 211.457031 C 592.460938 203.058594 593.679688 195.800781 594.808594 189.566406 C 594.9375 189.84375 595.082031 190.132812 595.203125 190.414062 C 595.125 194.023438 595.007812 198.066406 594.851562 202.601562 C 594.050781 225.335938 592.386719 254.734375 590.757812 283.160156 C 589.007812 313.875 587.199219 345.628906 586.484375 369.210938 C 586.207031 378.285156 586.105469 385.683594 586.171875 391.605469 C 585.683594 392.019531 585.199219 392.425781 584.714844 392.855469 C 582.566406 394.6875 580.484375 396.566406 578.394531 398.429688 Z M 607.761719 374.691406 C 610.503906 357.246094 613.539062 335.066406 616.480469 313.566406 C 619.460938 291.792969 622.539062 269.285156 625.285156 251.867188 C 625.648438 249.566406 625.992188 247.433594 626.320312 245.449219 L 626.410156 245.574219 C 626.410156 245.695312 626.410156 245.816406 626.425781 245.9375 C 627.25 260.261719 627.886719 278.664062 628.519531 296.457031 C 629.207031 315.964844 629.921875 336.136719 630.847656 351.128906 C 631.03125 354.160156 631.222656 356.902344 631.417969 359.371094 C 629.46875 360.496094 627.546875 361.667969 625.613281 362.824219 C 619.515625 366.582031 613.566406 370.542969 607.761719 374.707031 Z M 671.679688 340.453125 C 668.972656 341.402344 666.328125 342.480469 663.660156 343.519531 C 662.335938 344.066406 661.027344 344.613281 659.707031 345.175781 L 657.734375 345.996094 L 655.78125 346.875 L 651.878906 348.640625 L 651.273438 348.933594 C 652.371094 341.558594 653.652344 332.363281 655.230469 320.875 C 656.773438 309.644531 658.363281 298.066406 659.816406 288.550781 C 660.480469 289.292969 661.140625 290.035156 661.808594 290.769531 C 663.355469 297.296875 664.945312 304.269531 666.351562 310.414062 C 668.730469 320.820312 671.183594 331.558594 673.269531 339.859375 Z M 700.589844 332.085938 C 699.890625 332.238281 699.183594 332.359375 698.484375 332.542969 L 696.390625 333.042969 L 694.296875 333.546875 L 693.070312 333.84375 C 693.328125 332.023438 693.582031 330.179688 693.835938 328.363281 C 694.0625 326.722656 694.308594 324.925781 694.570312 323.074219 C 697.414062 325.558594 700.296875 328.003906 703.21875 330.40625 C 703.585938 330.710938 703.960938 331.011719 704.335938 331.3125 Z M 700.589844 332.085938 " fill-opacity="1" fill-rule="nonzero"/></g></svg>