<svg xmlns="http://www.w3.org/2000/svg" xmlns:xlink="http://www.w3.org/1999/xlink" width="1366" zoomAndPan="magnify" viewBox="0 0 1024.5 576" height="768" preserveAspectRatio="xMidYMid meet" version="1.0"><defs><clipPath id="82d9140822"><path d="M 268 21.152344 L 743 21.152344 L 743 554.890625 L 268 554.890625 Z M 268 21.152344 " clip-rule="nonzero"/></clipPath></defs><g clip-path="url(#82d9140822)"><path fill="#ffffff" d="M 513.148438 292.539062 C 511.34375 292.539062 509.609375 292.53125 507.949219 292.523438 L 501.738281 292.503906 C 476.601562 292.484375 438.613281 292.457031 410.289062 263.359375 C 395.855469 248.535156 387.230469 225.210938 384.652344 194.039062 C 382.78125 171.382812 384.597656 149.097656 386.726562 136.898438 C 391.335938 110.464844 399.765625 79.863281 427.347656 53.289062 C 448.753906 32.667969 476.269531 21.316406 504.851562 21.316406 C 504.925781 21.316406 504.996094 21.316406 505.070312 21.316406 L 505.417969 21.320312 L 505.769531 21.316406 C 505.839844 21.316406 505.914062 21.316406 505.988281 21.316406 C 534.570312 21.316406 562.085938 32.667969 583.492188 53.289062 C 611.070312 79.859375 619.503906 110.464844 624.113281 136.898438 C 626.242188 149.09375 628.058594 171.375 626.183594 194.035156 C 623.601562 225.195312 614.980469 248.519531 600.554688 263.355469 C 573.847656 290.824219 537.347656 292.539062 513.148438 292.539062 Z M 422.40625 251.566406 C 445.757812 275.550781 478.121094 275.574219 501.75 275.59375 L 508.042969 275.613281 C 530.636719 275.738281 564.753906 275.921875 588.429688 251.570312 C 599.886719 239.785156 607.113281 219.40625 609.328125 192.640625 C 611.195312 170.113281 609.027344 148.828125 607.453125 139.804688 C 603.105469 114.863281 595.769531 88.601562 571.761719 65.46875 C 553.523438 47.898438 530.167969 38.230469 505.988281 38.230469 C 505.925781 38.230469 505.867188 38.230469 505.804688 38.230469 L 505.035156 38.230469 C 480.738281 38.203125 457.363281 47.855469 439.078125 65.46875 C 415.070312 88.601562 407.734375 114.867188 403.386719 139.804688 C 399.847656 160.09375 395.746094 224.183594 422.40625 251.566406 Z M 711.039062 554.675781 L 299.054688 554.675781 C 298.453125 554.675781 297.855469 554.613281 297.265625 554.484375 C 288.769531 552.648438 282.054688 548.902344 277.304688 543.347656 C 265.070312 529.027344 266.007812 502.984375 279.949219 470.011719 C 292.214844 440.992188 313.128906 410.484375 335.890625 388.402344 C 362.980469 362.125 396.75 343.550781 436.257812 333.191406 C 458.761719 327.289062 482.101562 324.296875 505.628906 324.292969 C 505.644531 324.292969 505.664062 324.292969 505.679688 324.292969 C 528.867188 324.292969 552.84375 327.363281 575.03125 333.171875 C 614.566406 343.527344 648.359375 362.109375 675.464844 388.402344 C 722.714844 434.246094 759.003906 514.777344 733.988281 543.414062 C 727.828125 550.46875 719.996094 554.359375 711.339844 554.671875 C 711.238281 554.675781 711.136719 554.675781 711.039062 554.675781 Z M 300.007812 537.765625 L 710.867188 537.765625 C 714.738281 537.589844 718.234375 535.746094 721.253906 532.289062 C 726.433594 526.359375 728.125 508.644531 715.855469 478.230469 C 704.617188 450.371094 685.117188 421.328125 663.6875 400.542969 C 638.703125 376.300781 607.429688 359.136719 570.746094 349.53125 C 549.941406 344.082031 527.441406 341.203125 505.679688 341.203125 C 505.664062 341.203125 505.648438 341.203125 505.632812 341.203125 C 483.859375 341.207031 461.355469 344.09375 440.546875 349.546875 C 403.890625 359.160156 372.640625 376.316406 347.667969 400.542969 C 326.445312 421.125 306.953125 449.558594 295.523438 476.597656 C 284.703125 502.199219 282.644531 523.566406 290.160156 532.359375 C 292.316406 534.878906 295.625 536.695312 300.007812 537.765625 Z M 300.007812 537.765625 " fill-opacity="1" fill-rule="nonzero"/></g></svg>